<svg width="920" height="600" viewBox="0 0 920 600" fill="none" xmlns="http://www.w3.org/2000/svg">
  <rect width="920" height="600" fill="#F6F1E7"/>
  <path d="M0 0H345C365 86 352 177 295 243C228 321 101 344 0 322V0Z" fill="#CFE4DB"/>
  <path d="M920 210V600H630C592 539 575 468 593 397C624 278 748 218 920 210Z" fill="#E9C669"/>
  <rect x="154" y="130" width="604" height="342" rx="40" fill="#FAFAF8" stroke="#D8C9AD" stroke-width="4"/>

  <!-- Empty home outline -->
  <path d="M268 288V225L356 160L444 225V388H268V288Z" stroke="#0D6660" stroke-width="13" stroke-linecap="round" stroke-linejoin="round"/>
  <path d="M304 388V299H408V388" stroke="#0D6660" stroke-width="12" stroke-linecap="round" stroke-linejoin="round"/>
  <path d="M295 238H418" stroke="#0D6660" stroke-width="10" stroke-linecap="round"/>
  <path d="M274 424H457" stroke="#0D6660" stroke-width="13" stroke-linecap="round"/>
  <path d="M296 420C322 404 405 404 436 420" stroke="#0D6660" stroke-width="8" stroke-linecap="round" opacity=".9"/>

  <!-- Mop -->
  <path d="M568 178L524 352" stroke="#0D6660" stroke-width="13" stroke-linecap="round"/>
  <path d="M496 353H557" stroke="#0D6660" stroke-width="13" stroke-linecap="round"/>
  <path d="M506 356L489 409" stroke="#0D6660" stroke-width="12" stroke-linecap="round"/>
  <path d="M527 356L545 409" stroke="#0D6660" stroke-width="12" stroke-linecap="round"/>
  <path d="M476 416H560" stroke="#0D6660" stroke-width="14" stroke-linecap="round"/>

  <!-- Bucket and bubbles -->
  <path d="M610 305H702L686 405H626L610 305Z" fill="#EFD8A5" stroke="#0D6660" stroke-width="12" stroke-linejoin="round"/>
  <path d="M626 305C627 276 647 259 671 259C695 259 714 276 716 305" stroke="#0D6660" stroke-width="10" stroke-linecap="round"/>
  <path d="M626 342H686" stroke="#0D6660" stroke-width="8" stroke-linecap="round"/>
  <circle cx="634" cy="238" r="13" fill="#CFE4DB" stroke="#0D6660" stroke-width="6"/>
  <circle cx="675" cy="219" r="10" fill="#CFE4DB" stroke="#0D6660" stroke-width="5"/>
  <circle cx="705" cy="249" r="8" fill="#CFE4DB" stroke="#0D6660" stroke-width="5"/>

  <!-- Sparkles -->
  <path d="M706 160L720 174L734 160L720 146L706 160Z" fill="#E3B84D"/>
  <path d="M730 214L747 231L764 214L747 197L730 214Z" fill="#E3B84D"/>
  <path d="M465 182L477 194L489 182L477 170L465 182Z" fill="#E3B84D"/>
  <path d="M600 440C628 453 675 453 706 438" stroke="#0D6660" stroke-width="9" stroke-linecap="round"/>
</svg>
