<svg width="920" height="600" viewBox="0 0 920 600" fill="none" xmlns="http://www.w3.org/2000/svg" role="img" aria-hidden="true">
  <g opacity="0.98">
    <circle cx="460" cy="300" r="214" fill="#FAFAF8" stroke="#D8C9AD" stroke-width="6"/>
    <circle cx="315" cy="190" r="58" fill="#CFE4DB" opacity="0.85"/>
    <circle cx="610" cy="418" r="78" fill="#E9C669" opacity="0.55"/>
    
    <path d="M292 343V262L406 176L520 262V432H292V343Z" stroke="#0D6660" stroke-width="20" stroke-linecap="round" stroke-linejoin="round"/>
    <path d="M356 432V346H456V432" stroke="#0D6660" stroke-width="18" stroke-linecap="round" stroke-linejoin="round"/>
    <path d="M315 462H548" stroke="#0D6660" stroke-width="18" stroke-linecap="round"/>
    <path d="M600 204L552 406" stroke="#0D6660" stroke-width="18" stroke-linecap="round"/>
    <path d="M515 410H585" stroke="#0D6660" stroke-width="18" stroke-linecap="round"/>
    <path d="M527 413L505 464" stroke="#0D6660" stroke-width="16" stroke-linecap="round"/>
    <path d="M559 413L584 464" stroke="#0D6660" stroke-width="16" stroke-linecap="round"/>
    <path d="M630 355H710L696 442H644L630 355Z" fill="#F2E1B5" stroke="#0D6660" stroke-width="16" stroke-linejoin="round"/>
    <path d="M640 355C643 324 664 306 690 306C713 306 731 324 734 355" stroke="#0D6660" stroke-width="14" stroke-linecap="round"/>
    <circle cx="657" cy="277" r="14" fill="#CFE4DB" stroke="#0D6660" stroke-width="8"/>
    <circle cx="706" cy="263" r="11" fill="#CFE4DB" stroke="#0D6660" stroke-width="7"/>
    <path d="M686 178L704 196L722 178L704 160L686 178Z" fill="#D49D35"/>

  </g>
</svg>
