<svg width="920" height="600" viewBox="0 0 920 600" fill="none" xmlns="http://www.w3.org/2000/svg" role="img" aria-hidden="true">
  <g opacity="0.98">
    <circle cx="460" cy="300" r="214" fill="#FAFAF8" stroke="#D8C9AD" stroke-width="6"/>
    <circle cx="315" cy="190" r="58" fill="#CFE4DB" opacity="0.85"/>
    <circle cx="610" cy="418" r="78" fill="#E9C669" opacity="0.55"/>
    
    <path d="M328 437H590" stroke="#0D6660" stroke-width="18" stroke-linecap="round"/>
    <path d="M344 325H558L606 384V437H298V384L344 325Z" fill="#F2E1B5" stroke="#0D6660" stroke-width="18" stroke-linejoin="round"/>
    <path d="M386 325L417 246H516L548 325" stroke="#0D6660" stroke-width="18" stroke-linecap="round" stroke-linejoin="round"/>
    <circle cx="366" cy="439" r="34" fill="#FAFAF8" stroke="#0D6660" stroke-width="16"/>
    <circle cx="538" cy="439" r="34" fill="#FAFAF8" stroke="#0D6660" stroke-width="16"/>
    <path d="M622 235C622 283 572 335 572 335C572 335 522 283 522 235C522 207 544 185 572 185C600 185 622 207 622 235Z" fill="#FAFAF8" stroke="#0D6660" stroke-width="17"/>
    <circle cx="572" cy="236" r="16" fill="#D49D35"/>
    <path d="M270 281L288 299L306 281L288 263L270 281Z" fill="#D49D35"/>

  </g>
</svg>
