<svg width="920" height="600" viewBox="0 0 920 600" fill="none" xmlns="http://www.w3.org/2000/svg" role="img" aria-hidden="true">
  <g opacity="0.98">
    <circle cx="460" cy="300" r="214" fill="#FAFAF8" stroke="#D8C9AD" stroke-width="6"/>
    <circle cx="315" cy="190" r="58" fill="#CFE4DB" opacity="0.85"/>
    <circle cx="610" cy="418" r="78" fill="#E9C669" opacity="0.55"/>
    
    <path d="M303 301L420 244L537 301V444L420 501L303 444V301Z" fill="#F2E1B5" stroke="#0D6660" stroke-width="20" stroke-linejoin="round"/>
    <path d="M420 244V501" stroke="#0D6660" stroke-width="16" stroke-linecap="round"/>
    <path d="M303 301L420 358L537 301" stroke="#0D6660" stroke-width="16" stroke-linecap="round" stroke-linejoin="round"/>
    <rect x="382" y="332" width="76" height="48" rx="8" fill="#FAFAF8" stroke="#0D6660" stroke-width="10"/>
    <path d="M398 346H442" stroke="#0D6660" stroke-width="7" stroke-linecap="round"/>
    <path d="M398 361H432" stroke="#0D6660" stroke-width="7" stroke-linecap="round"/>
    <rect x="581" y="208" width="138" height="220" rx="24" fill="#FAFAF8" stroke="#0D6660" stroke-width="18"/>
    <path d="M615 269L633 287L670 250" stroke="#0D6660" stroke-width="14" stroke-linecap="round" stroke-linejoin="round"/>
    <path d="M615 331L633 349L670 312" stroke="#0D6660" stroke-width="14" stroke-linecap="round" stroke-linejoin="round"/>
    <path d="M615 392L633 410L670 373" stroke="#0D6660" stroke-width="14" stroke-linecap="round" stroke-linejoin="round"/>
    <path d="M548 184L566 202L584 184L566 166L548 184Z" fill="#D49D35"/>
    <path d="M728 190L746 208L764 190L746 172L728 190Z" fill="#D49D35"/>

  </g>
</svg>
