<svg width="920" height="600" viewBox="0 0 920 600" fill="none" xmlns="http://www.w3.org/2000/svg" role="img" aria-hidden="true">
  <g opacity="0.98">
    <circle cx="460" cy="300" r="214" fill="#FAFAF8" stroke="#D8C9AD" stroke-width="6"/>
    <circle cx="315" cy="190" r="58" fill="#CFE4DB" opacity="0.85"/>
    <circle cx="610" cy="418" r="78" fill="#E9C669" opacity="0.55"/>
    
    <path d="M323 336V263L460 158L597 263V438H323V336Z" stroke="#0D6660" stroke-width="20" stroke-linecap="round" stroke-linejoin="round"/>
    <path d="M385 438V346H535V438" stroke="#0D6660" stroke-width="18" stroke-linecap="round" stroke-linejoin="round"/>
    <path d="M415 279H505" stroke="#0D6660" stroke-width="16" stroke-linecap="round"/>
    <path d="M460 328C430 300 383 319 385 360C387 400 460 431 460 431C460 431 533 400 535 360C537 319 490 300 460 328Z" fill="#F2E1B5" stroke="#0D6660" stroke-width="14" stroke-linejoin="round"/>
    <path d="M608 206L626 224L644 206L626 188L608 206Z" fill="#D49D35"/>
    <path d="M273 412L288 427L303 412L288 397L273 412Z" fill="#D49D35"/>

  </g>
</svg>
