<svg width="920" height="600" viewBox="0 0 920 600" fill="none" xmlns="http://www.w3.org/2000/svg" role="img" aria-hidden="true">
  <g opacity="0.98">
    <circle cx="460" cy="300" r="214" fill="#FAFAF8" stroke="#D8C9AD" stroke-width="6"/>
    <circle cx="315" cy="190" r="58" fill="#CFE4DB" opacity="0.85"/>
    <circle cx="610" cy="418" r="78" fill="#E9C669" opacity="0.55"/>
    
    <path d="M313 292H607L572 459H348L313 292Z" fill="#FAFAF8" stroke="#0D6660" stroke-width="20" stroke-linejoin="round"/>
    <path d="M352 292C360 225 404 186 460 186C516 186 560 225 568 292" stroke="#0D6660" stroke-width="18" stroke-linecap="round"/>
    <path d="M365 357H555" stroke="#0D6660" stroke-width="16" stroke-linecap="round"/>
    <path d="M383 413H537" stroke="#0D6660" stroke-width="16" stroke-linecap="round"/>
    <circle cx="400" cy="258" r="23" fill="#F2E1B5" stroke="#0D6660" stroke-width="12"/>
    <circle cx="467" cy="247" r="24" fill="#CFE4DB" stroke="#0D6660" stroke-width="12"/>
    <circle cx="534" cy="259" r="23" fill="#F2E1B5" stroke="#0D6660" stroke-width="12"/>
    <path d="M611 209L629 227L647 209L629 191L611 209Z" fill="#D49D35"/>
    <path d="M273 388L291 406L309 388L291 370L273 388Z" fill="#D49D35"/>

  </g>
</svg>
